<?xml version="1.0" encoding="UTF-8" standalone="no"?>
<!DOCTYPE svg PUBLIC "-//W3C//DTD SVG 1.1//EN" "http://www.w3.org/Graphics/SVG/1.1/DTD/svg11.dtd">
<svg width="100%" height="100%" viewBox="0 0 561 605" version="1.1" xmlns="http://www.w3.org/2000/svg" xmlns:xlink="http://www.w3.org/1999/xlink" xml:space="preserve" xmlns:serif="http://www.serif.com/" style="fill-rule:evenodd;clip-rule:evenodd;stroke-linecap:round;stroke-linejoin:round;stroke-miterlimit:1.5;">
    <rect x="0" y="1" width="561" height="604" style="fill:#fff;"/>
    <path d="M294.617,121c0,0.464 0,13.452 0,14.843l5.304,0c6.75,0 16.394,0 20.251,3.711c5.786,6.494 0.964,12.06 -5.304,19.481c-1.446,2.32 -3.375,4.175 -5.304,6.494c-8.197,9.741 -8.197,18.554 -4.821,20.873c1.446,1.392 4.821,1.392 7.714,0l1.447,-0.928c5.304,-4.174 15.429,-11.132 20.251,-12.987c4.34,-2.319 8.679,-1.392 11.572,1.391c3.857,4.175 3.857,13.452 -3.857,23.193c-2.411,2.783 -4.822,5.566 -7.715,8.813c-3.857,4.174 -8.197,8.349 -11.572,12.987c-3.857,5.103 -4.34,11.596 -1.447,14.379c2.411,2.32 5.786,0.928 10.126,-2.783c5.786,-4.174 11.572,-4.638 13.983,-1.391c0.964,1.391 2.411,3.711 2.411,5.566c0,5.566 -3.858,13.452 -10.126,19.945c-12.054,12.06 -21.215,22.729 -21.215,32.933c0,2.32 0.482,4.175 0.964,6.494c1.447,4.175 4.822,14.379 5.304,16.235c0,0.464 0.482,0.927 0.482,0.927l-0.482,0.928c0,0 -0.482,0 -1.447,0l-11.572,0l-11.09,-28.758c-1.446,-3.711 -3.375,-6.958 -13.5,-9.277l-4.822,-1.392l-0.482,0c-1.447,-0.464 -2.411,0 -3.375,0.464c-5.786,4.175 -6.751,4.639 -6.751,4.639c-6.75,4.638 -9.643,5.566 -12.536,5.102c-2.893,-0.464 -3.858,-2.783 -3.858,-5.102l0,-0.928c2.893,-4.639 5.304,-9.277 7.233,-14.843c1.446,-5.102 2.893,-10.669 2.893,-16.235c0,0 0,-0.464 0.482,-0.464c1.447,-2.783 3.858,-3.246 6.751,-2.783c2.893,0.928 4.821,3.711 7.714,11.133l2.411,5.102c0.482,0.928 0.482,2.319 0.482,2.319c0.482,1.392 0.965,2.319 2.893,2.783c0,0 4.34,0.928 6.751,2.319c0.482,0 0.964,0.464 0.964,0.464l0.482,-0.464c0,0 -0.482,-0.463 -0.482,-0.927c-0.964,-2.319 -2.411,-5.566 -2.411,-5.566l-3.857,-9.741c-4.34,-11.132 -7.233,-15.307 -15.43,-20.873c-4.821,-3.247 -11.572,-6.494 -16.876,-8.813c-3.857,-1.392 -7.232,-3.247 -9.643,-4.639c-9.643,-5.102 -15.912,-12.523 -15.912,-19.945c0,-0.928 0,-2.319 0.483,-3.247c0.964,-4.174 5.303,-6.958 10.125,-6.958c4.34,0 13.983,3.247 22.662,6.958c3.857,1.392 6.751,0.928 7.715,-0.928c2.411,-4.174 -1.447,-12.523 -12.054,-19.945c-14.948,-10.668 -21.698,-17.626 -22.18,-23.656c-0.482,-2.783 0.482,-4.638 2.411,-6.958c2.893,-3.71 11.09,-3.71 17.84,-3.71c0,0 4.822,0 5.304,0c0,-0.464 0,-14.38 0,-14.843c-0.482,0 -136.937,0 -137.901,0l0,14.843c3.375,0 5.786,0 9.643,0.463c12.055,0.928 21.216,6.494 30.377,30.614c2.411,5.566 80.04,196.207 82.451,201.773c5.786,0 58.825,0 66.058,0c0,-0.464 76.665,-189.713 82.451,-202.701c9.161,-23.192 19.769,-28.294 31.823,-29.222c2.411,0 5.304,-0.464 8.197,-0.464c0,-0.463 0,-14.379 0,-14.843c-1.447,-1.855 -137.901,-1.855 -138.383,-1.855Zm-45.324,154.924l-7.715,-2.783c-9.161,-3.247 -13.018,-5.102 -13.983,-14.843c-0.482,-2.319 -0.482,-5.102 -0.482,-5.102c0,-0.464 2.411,-2.783 3.375,-4.175c5.786,-7.421 11.09,-7.421 20.734,-5.102l8.197,1.391l0,0.464c0,5.103 -0.965,10.669 -2.893,15.771c-1.929,4.638 -3.376,8.813 -7.233,14.379Z" style="fill-rule:nonzero;"/>
    <rect x="96" y="71" width="362" height="352" style="fill:none;stroke:#000;stroke-width:4px;"/>
    <g>
        <path d="M91.04,246.769l0,179.121l371.064,0l0,-358.242l-185.532,0l-185.532,0l0,179.121Zm360.796,0l0,169.216l-175.264,0l-175.264,0l0,-338.432l350.528,0l0,169.216Z" style="fill-rule:nonzero;"/>
        <path d="M119.562,129.914l0,8.062l5.932,0.33c8.927,0.495 12.721,1.458 17.113,4.32c2.795,1.788 6.389,5.475 8.87,9.079c2.367,3.467 6.132,10.704 8.243,15.959c13.947,34.476 23.416,57.726 43.837,107.858c24.472,60.01 37.934,93.192 38.675,95.146l0.371,1.018l34.34,-0.055l34.311,-0.083l25.242,-62.458c28.692,-70.988 51.681,-127.861 55.645,-137.574c6.588,-16.124 11.779,-23.883 18.995,-28.423c4.735,-2.971 9.27,-4.127 17.455,-4.402l5.134,-0.193l0.086,-8.144l0.057,-8.144l-37.705,-0.166c-20.736,-0.11 -52.223,-0.192 -70.021,-0.192l-32.314,0l0,8.089l0,8.062l7.929,0.165c8.328,0.193 10.695,0.413 13.775,1.293c2.624,0.743 4.393,2.009 5.648,3.962c0.912,1.459 1.026,1.816 1.026,3.577c0,3.385 -1.14,5.256 -8.841,14.473c-6.446,7.732 -8.471,10.841 -10.125,15.601c-2.596,7.539 -0.371,13.565 5.019,13.565c1.968,0 3.594,-0.826 8.528,-4.293c8.785,-6.19 15.316,-10.4 18.026,-11.583c1.911,-0.853 4.706,-1.128 6.503,-0.633c1.854,0.495 3.85,2.311 4.877,4.457c0.77,1.596 0.827,1.981 0.827,5.036c0,2.696 -0.114,3.686 -0.656,5.365c-1.569,4.787 -4.62,9.272 -10.895,15.958c-10.04,10.704 -13.291,14.638 -15.145,18.325c-1.397,2.807 -2.082,5.696 -1.882,8.09c0.199,2.256 0.77,3.549 2.025,4.622c2.395,2.036 6.018,1.293 11.294,-2.256c6.902,-4.678 11.808,-4.87 14.004,-0.55c0.941,1.926 0.97,5.97 0,8.914c-1.454,4.485 -4.164,8.915 -8.071,13.125c-1.141,1.238 -3.908,4.21 -6.161,6.631c-8.671,9.327 -12.92,15.463 -15.031,21.792c-0.627,1.871 -0.798,3.054 -0.912,5.805c-0.2,4.513 0.057,5.641 3.679,15.794c1.568,4.375 2.852,8.144 2.88,8.337c0.057,0.302 -1.055,0.357 -5.504,0.33c-3.052,0 -5.562,-0.055 -5.562,-0.083c-0.028,-0.027 -2.51,-6.548 -5.562,-14.5c-3.023,-7.952 -5.818,-15.05 -6.189,-15.793c-1.169,-2.257 -3.308,-4.073 -6.674,-5.641c-3.109,-1.458 -11.808,-4.155 -13.348,-4.155c-1.226,0 -1.511,0.165 -6.303,3.577c-9.84,7.017 -12.749,8.31 -15.658,6.824c-1.512,-0.743 -2.311,-2.064 -2.311,-3.715c0,-0.908 0.343,-1.788 1.541,-3.852c4.335,-7.594 7.101,-16.343 7.929,-25.203l0.342,-3.907l1.312,-1.293c1.226,-1.211 1.426,-1.321 2.681,-1.321c1.683,0 2.652,0.495 4.107,2.063c1.483,1.624 2.681,4.045 5.333,10.869c1.198,3.109 2.368,5.97 2.596,6.383c0.542,1.046 1.255,1.348 6.759,2.944c2.596,0.743 4.992,1.514 5.305,1.679c0.742,0.357 1.056,-0.11 0.628,-0.908c-0.171,-0.33 -2.025,-5.118 -4.136,-10.648c-4.392,-11.502 -4.877,-12.657 -6.645,-16.069c-1.911,-3.715 -3.651,-6.081 -6.36,-8.695c-4.222,-4.099 -8.557,-6.823 -16.914,-10.731c-2.538,-1.183 -7.044,-3.274 -10.039,-4.65c-6.36,-2.971 -10.981,-5.833 -14.09,-8.777c-7.187,-6.768 -8.898,-15.16 -3.964,-19.453c1.911,-1.678 3.394,-2.173 6.36,-2.173c3.793,0 8.756,1.348 19.395,5.227c4.306,1.569 5.476,1.871 7.301,1.982c1.797,0.082 2.367,0 3.337,-0.468c3.879,-1.926 3.08,-8.475 -1.825,-14.803c-2.225,-2.889 -5.163,-5.558 -9.526,-8.75c-9.584,-6.961 -15.972,-12.684 -18.768,-16.784c-3.28,-4.787 -3.365,-8.887 -0.285,-11.969c2.139,-2.118 5.134,-2.696 15.288,-2.944l7.472,-0.165l0,-16.151l-70.305,0l-70.305,0l0,8.062Zm127.49,114.351c1.027,0.138 4.45,0.798 7.616,1.458l5.79,1.183l0,1.926c0,2.367 -0.885,8.31 -1.683,11.337c-0.799,3.026 -2.282,7.153 -3.565,9.987c-1.113,2.422 -3.737,7.044 -4.165,7.292c-0.256,0.137 -10.638,-3.605 -12.606,-4.568c-5.533,-2.696 -7.644,-5.97 -8.499,-13.042c-0.571,-4.815 -0.542,-4.87 1.711,-7.731c4.307,-5.448 8.157,-7.869 12.835,-8.062c0.399,0 1.54,0.082 2.566,0.22Z" style="fill-rule:nonzero;"/>
        <path d="M139.641,460.201l-2.282,0.11l-0.599,1.706c-3.08,8.75 -10.154,27.845 -10.524,28.395c-0.542,0.798 -1.512,1.348 -2.881,1.651c-0.856,0.165 -0.941,0.275 -0.941,1.183l0,1.018l11.979,0l0,-1.045c0,-0.963 -0.057,-1.018 -0.913,-1.018c-1.511,0 -3.023,-0.523 -3.223,-1.101c-0.085,-0.275 0.4,-2.284 1.141,-4.512l1.341,-4.018l10.438,0l1.141,3.22c1.94,5.585 1.883,5.31 1.398,5.778c-0.228,0.22 -1.027,0.495 -1.74,0.55c-1.283,0.165 -1.312,0.165 -1.312,1.156l0,0.99l7.33,-0.055l7.359,-0.027l0.085,-0.963c0.086,-0.908 0.029,-0.963 -0.998,-1.156c-1.483,-0.248 -1.997,-0.578 -2.481,-1.458c-0.2,-0.413 -2.796,-7.319 -5.733,-15.326c-2.938,-8.034 -5.476,-14.748 -5.648,-14.941c-0.142,-0.165 -0.342,-0.302 -0.456,-0.275c-0.085,0.028 -1.198,0.11 -2.481,0.138Zm2.139,18.71c0.028,0.275 -0.913,0.358 -3.822,0.358c-2.966,0 -3.85,-0.083 -3.85,-0.358c0,-0.193 0.855,-2.889 1.911,-5.971l1.882,-5.64l1.939,5.64c1.056,3.109 1.94,5.806 1.94,5.971Z" style="fill-rule:nonzero;"/>
        <path d="M268.643,460.504l-12.777,0.055l0.085,1.045l0.086,1.018l1.597,0.138c2.738,0.247 2.538,-0.991 2.538,14.555c0,7.512 -0.114,13.785 -0.228,13.95c-0.371,0.55 -1.426,0.936 -2.624,0.936l-1.169,0l0.085,0.99l0.086,0.991l13.205,0.055c12.978,0.027 13.206,0.027 13.32,-0.523c0.342,-1.651 1.226,-7.429 1.141,-7.512c-0.029,-0.055 -0.514,-0.137 -1.056,-0.22c-0.941,-0.165 -0.969,-0.165 -1.454,1.348c-0.599,1.871 -1.711,3.055 -3.223,3.467c-1.455,0.386 -8.043,0.386 -9.241,0c-1.512,-0.522 -1.711,-1.403 -1.711,-7.401l0,-5.228l3.679,0c3.451,0 3.765,0.055 4.478,0.633c0.599,0.495 0.798,0.963 0.913,2.063c0.057,0.798 0.228,1.514 0.342,1.569c0.114,0.082 0.627,0.055 1.112,-0.028l0.884,-0.192l0,-10.924l-0.969,0c-0.913,0 -0.999,0.083 -1.17,1.018c-0.399,2.229 -1.141,2.559 -5.676,2.559l-3.593,0l0,-11.336l4.791,0.11c4.421,0.083 4.82,0.138 5.676,0.716c0.941,0.632 1.512,1.926 1.512,3.439c0,0.743 0.057,0.77 0.941,0.605c0.485,-0.11 1.027,-0.275 1.141,-0.385c0.114,-0.11 0.171,-1.871 0.142,-3.907l-0.085,-3.687l-12.778,0.083Z" style="fill-rule:nonzero;"/>
        <path d="M431.9,463.585c-0.2,1.734 -0.428,3.44 -0.513,3.77c-0.143,0.578 -0.058,0.633 0.998,0.633c1.112,0 1.198,-0.055 1.454,-1.046c0.171,-0.55 0.314,-1.183 0.314,-1.376c0,-0.192 0.314,-0.66 0.713,-1.018c0.685,-0.66 0.799,-0.688 5.134,-0.688l4.421,0l0,13.318l0,13.344l-0.628,0.716c-0.513,0.55 -1.026,0.715 -2.424,0.88l-1.797,0.165l0,0.991l0,0.99l17.113,0l0,-1.981l-1.911,-0.248c-1.569,-0.22 -1.968,-0.385 -2.481,-1.018c-0.599,-0.77 -0.599,-1.073 -0.685,-13.977l-0.085,-13.18l4.021,0c5.134,0 5.59,0.248 6.132,3.385c0.171,1.018 0.2,1.045 1.084,0.88c0.513,-0.11 0.998,-0.275 1.112,-0.385c0.086,-0.083 0.229,-1.789 0.286,-3.742l0.085,-3.577l-16,0l-16.001,0l-0.342,3.164Z" style="fill-rule:nonzero;"/>
        <path d="M86.192,461.659l0,1.101l1.255,0c2.424,0 1.654,-1.459 11.465,21.544l4.535,10.676l2.51,-0.166l6.503,-15.27c3.594,-8.392 6.759,-15.574 7.045,-15.959c0.37,-0.468 0.855,-0.715 1.568,-0.77c1.027,-0.083 1.056,-0.138 1.056,-1.183l0,-1.073l-5.562,0l-5.562,0l0,1.1l0,1.101l1.683,0c1.968,0 2.453,0.385 2.225,1.761c-0.114,0.77 -7.616,19.535 -8.1,20.361c-0.2,0.302 -8.642,-20.416 -8.642,-21.187c0,-0.715 0.484,-0.935 2.167,-0.935l1.255,0l0,-2.201l-7.701,0l-7.7,0l0,1.1Z" style="fill-rule:nonzero;"/>
        <path d="M163.199,461.522c0,0.853 0.086,0.963 0.742,0.963c1.169,0 2.624,0.798 3.251,1.816c0.571,0.88 0.599,1.183 0.514,13.097c-0.086,11.171 -0.143,12.271 -0.599,13.097c-0.571,1.018 -1.94,1.706 -3.337,1.706c-0.799,0 -0.856,0.055 -0.856,1.018l0,1.045l13.691,0l0,-2.008l-1.626,-0.193c-0.884,-0.11 -1.883,-0.358 -2.225,-0.578c-1.369,-0.853 -1.397,-1.265 -1.511,-12.299c-0.058,-5.695 0,-10.373 0.142,-10.345c0.114,0 5.676,5.888 12.321,13.069l12.093,13.042l2.339,0l0.029,-14.39c0.028,-9.713 0.171,-14.748 0.371,-15.518c0.399,-1.376 1.483,-2.284 2.766,-2.284c1.483,0 1.825,-0.248 1.825,-1.266l0,-0.935l-6.845,0l-6.845,0l0,1.1l0,1.101l1.455,0c1.683,0 2.852,0.66 3.337,1.843c0.171,0.441 0.371,4.513 0.456,9.823l0.143,9.025l-0.628,-0.55c-0.342,-0.331 -5.105,-5.476 -10.61,-11.447l-9.982,-10.868l-5.191,-0.027l-5.22,0l0,0.963Z" style="fill-rule:nonzero;"/>
        <path d="M211.401,461.632l0,1.128l1.568,0c1.198,0 1.712,0.137 2.139,0.55c0.542,0.523 0.571,0.908 0.571,14.115c0,15.491 0.2,14.363 -2.538,14.693c-1.455,0.165 -1.455,0.165 -1.455,1.156l0,0.99l10.496,-0.027c8.813,-0.028 10.752,-0.083 12.293,-0.496c5.618,-1.403 10.324,-5.75 12.207,-11.281c0.941,-2.834 1.055,-7.291 0.256,-9.932c-1.739,-5.613 -5.989,-9.548 -12.292,-11.309c-1.455,-0.413 -3.309,-0.495 -12.464,-0.578l-10.781,-0.11l0,1.101Zm20.136,2.338c2.082,0.633 4.364,2.174 5.59,3.797c1.369,1.761 2.168,4.265 2.567,7.925c0.884,8.337 -3.08,14.39 -10.097,15.436c-2.852,0.44 -5.076,0.165 -5.961,-0.743l-0.684,-0.716l-0.086,-12.932c-0.057,-10.345 0,-13.014 0.286,-13.207c0.57,-0.385 6.731,-0.055 8.385,0.44Z" style="fill-rule:nonzero;"/>
        <path d="M293.257,461.659l0,1.101l1.54,0c1.341,0 1.626,0.11 2.139,0.715c0.599,0.716 0.599,0.991 0.599,14.17l0,13.455l-0.713,0.44c-0.399,0.248 -1.283,0.523 -1.996,0.606c-1.255,0.11 -1.284,0.137 -1.284,1.128l0,0.99l8.043,-0.027l8.072,-0.028l0.171,-1.926l-1.797,-0.192c-1.369,-0.138 -1.968,-0.331 -2.51,-0.853c-0.713,-0.688 -0.713,-0.771 -0.827,-6.054c-0.114,-6.08 -0.171,-5.888 2.168,-5.475c1.34,0.248 1.369,0.275 3.936,3.852c3.251,4.54 6.161,8.337 7.045,9.107c1.198,1.073 2.481,1.404 6.731,1.596l4.05,0.22l0,-1.128c0,-1.1 0,-1.128 -1.255,-1.293c-0.685,-0.11 -1.626,-0.413 -2.054,-0.66c-0.456,-0.275 -2.652,-2.917 -4.905,-5.861c-2.225,-2.972 -4.507,-5.778 -5.049,-6.218l-0.969,-0.853l1.483,-0.798c1.854,-1.018 3.736,-2.972 4.649,-4.815c1.454,-3.027 0.684,-7.677 -1.597,-9.658c-2.796,-2.421 -4.079,-2.641 -15.944,-2.641l-9.726,0l0,1.1Zm17.37,2.366c0.97,0.468 1.768,1.129 2.253,1.844c0.713,1.046 0.77,1.321 0.77,4.017c0,2.697 -0.057,3.027 -0.77,4.21c-1.169,1.871 -3.109,2.751 -5.961,2.641l-2.111,-0.082l-0.085,-6.329c-0.029,-3.467 0,-6.466 0.057,-6.658c0.114,-0.248 0.827,-0.358 2.253,-0.358c1.683,0 2.367,0.138 3.594,0.715Z" style="fill-rule:nonzero;"/>
        <path d="M335.184,461.659l0,1.101l1.426,0c1.169,0 1.597,0.137 2.139,0.688l0.713,0.66l0,13.18c0,12.821 -0.029,13.207 -0.57,13.895c-0.457,0.55 -0.942,0.742 -2.14,0.88l-1.568,0.193l0,1.018l0,0.99l9.925,-0.027c10.468,-0.028 11.238,-0.11 13.862,-1.404c8.157,-3.989 7.529,-14.005 -1.056,-16.563l-1.739,-0.496l1.34,-0.578c1.939,-0.825 3.251,-1.898 4.136,-3.329c0.684,-1.1 0.77,-1.568 0.77,-3.604c0,-1.981 -0.114,-2.532 -0.713,-3.577c-0.885,-1.486 -2.681,-2.862 -4.649,-3.495c-1.284,-0.412 -2.91,-0.495 -11.666,-0.577l-10.21,-0.083l0,1.128Zm17.284,2.174c1.768,0.77 2.481,2.091 2.624,4.815c0.085,1.953 0.028,2.394 -0.571,3.467c-0.969,1.706 -2.595,2.476 -5.618,2.669l-2.311,0.165l0,-11.639l2.368,0c1.654,0 2.681,0.165 3.508,0.523Zm0.057,14.197c3.708,1.074 5.676,4.871 4.535,8.695c-0.97,3.164 -3.195,4.65 -6.96,4.65c-2.167,0 -2.367,-0.055 -2.909,-0.715c-0.57,-0.688 -0.599,-1.073 -0.599,-6.879l0,-6.163l2.225,0c1.226,0 2.909,0.192 3.708,0.412Z" style="fill-rule:nonzero;"/>
        <path d="M374.6,461.577l0.086,1.045l1.626,0.138c2.852,0.247 2.652,-0.853 2.652,14.555c0,15.518 0.2,14.418 -2.738,14.748l-1.711,0.193l0.085,0.963l0.086,0.99l15.687,0l0.085,-0.963l0.086,-0.99l-1.711,-0.193c-2.938,-0.33 -2.739,0.77 -2.739,-14.748c0,-15.408 -0.199,-14.308 2.653,-14.555l1.626,-0.138l0.085,-1.045l0.086,-1.018l-8.015,0l-8.014,0l0.085,1.018Z" style="fill-rule:nonzero;"/>
        <path d="M401.924,461.659l0,1.101l1.512,0c0.884,0 1.739,0.165 2.139,0.44l0.627,0.413l0,13.62c0,15.6 0.2,14.5 -2.681,14.83l-1.597,0.193l0,1.018l0,0.99l26.211,0l0.456,-2.421c0.257,-1.321 0.628,-3.274 0.828,-4.347l0.399,-1.926l-1.141,0.082c-1.027,0.083 -1.169,0.165 -1.512,1.128c-0.513,1.486 -1.711,2.862 -3.08,3.55c-1.084,0.577 -1.597,0.632 -5.248,0.632c-3.85,0 -4.107,-0.027 -4.706,-0.632l-0.656,-0.633l0,-13.015c0,-10.62 0.086,-13.097 0.399,-13.454c0.286,-0.358 0.856,-0.468 2.197,-0.468l1.825,0l0,-2.201l-7.986,0l-7.986,0l0,1.1Z" style="fill-rule:nonzero;"/>
        <path d="M435.807,523.402l-1.625,0.881l6.132,8.639l6.16,8.668l-0.171,7.621l-0.171,7.649l3.908,0l0.199,-2.531c0.086,-1.376 0.171,-4.925 0.171,-7.869l0,-5.338l6.275,-8.365c3.451,-4.622 6.275,-8.419 6.275,-8.447c0,-0.165 -3.423,-1.678 -3.508,-1.541c-0.4,0.468 -9.412,12.74 -10.04,13.648c-0.428,0.66 -0.884,1.183 -0.97,1.183c-0.114,0 -0.427,-0.413 -0.741,-0.908c-0.998,-1.651 -9.869,-14.088 -10.068,-14.115c-0.114,-0.028 -0.941,0.358 -1.826,0.825Z" style="fill-rule:nonzero;"/>
        <path d="M139.641,523.292l-1.74,0.551l-0.171,7.208c-0.114,3.99 -0.2,11.419 -0.2,16.509l0,9.3l3.622,0l0.172,-7.649c0.114,-4.182 0.199,-10.4 0.228,-13.812c0,-4.898 0.085,-6.081 0.342,-5.668c3.964,5.97 19.452,27.68 19.708,27.597c0.171,-0.055 0.999,-0.275 1.826,-0.495c0.855,-0.193 1.625,-0.551 1.768,-0.798c0.143,-0.248 0.285,-7.732 0.342,-16.592l0.086,-16.151l-1.911,0l-1.94,0l-0.057,10.098c-0.057,5.586 -0.057,11.859 0,13.95c0.029,2.119 0.029,3.797 -0.028,3.715c-0.086,-0.083 -10.154,-14.528 -17.484,-25.066c-1.255,-1.789 -2.367,-3.22 -2.538,-3.22c-0.143,0 -1.056,0.248 -2.025,0.523Z" style="fill-rule:nonzero;"/>
        <path d="M208.834,523.265c-1.027,0.302 -1.54,0.605 -1.483,0.88c0.028,0.22 2.994,7.622 6.588,16.482l6.532,16.096l3.907,0l6.902,-16.234c3.822,-8.942 6.931,-16.371 6.931,-16.536c0,-0.248 -2.624,-1.211 -3.337,-1.211c-0.143,0 -2.966,6.493 -6.246,14.445c-4.193,10.126 -6.018,14.308 -6.19,13.95c-0.114,-0.247 -2.681,-6.713 -5.704,-14.363c-3.536,-8.887 -5.647,-13.922 -5.932,-13.949c-0.228,-0.028 -1.113,0.165 -1.968,0.44Z" style="fill-rule:nonzero;"/>
        <path d="M297.45,522.935c-1.854,0.055 -2.824,0.22 -2.909,0.44c-0.086,0.192 -0.171,7.786 -0.2,16.921l-0.086,16.564l1.883,0c1.483,0 1.939,-0.11 2.082,-0.44c0.086,-0.248 0.171,-3.577 0.171,-7.429l0,-6.989l1.94,0c1.283,0 2.224,0.165 2.823,0.468c0.628,0.33 2.596,2.724 6.075,7.374c2.852,3.77 5.277,7.044 5.391,7.264c0.199,0.33 0.599,0.22 2.139,-0.468l1.882,-0.853l-5.019,-6.686c-2.739,-3.687 -5.334,-6.961 -5.733,-7.319c-0.4,-0.358 -0.685,-0.66 -0.628,-0.715c0.057,-0.028 0.713,-0.275 1.483,-0.55c0.742,-0.276 1.997,-0.936 2.767,-1.514c3.052,-2.229 4.136,-4.457 3.936,-8.117c-0.143,-2.669 -0.742,-3.962 -2.596,-5.585c-2.424,-2.146 -6.132,-2.724 -15.401,-2.366Zm9.498,3.411c2.937,0.633 4.42,2.532 4.42,5.613c-0.028,4.595 -3.166,6.742 -9.868,6.742l-3.109,0l0,-5.806c0,-3.467 0.114,-5.998 0.285,-6.328c0.286,-0.468 0.628,-0.523 3.651,-0.523c1.825,0 3.907,0.137 4.621,0.302Z" style="fill-rule:nonzero;"/>
        <path d="M340.859,523.182c-2.937,0.853 -5.533,3.329 -6.274,5.971c-0.428,1.568 -0.171,4.457 0.542,6.026c0.941,2.063 2.88,3.604 7.187,5.723c4.877,2.366 6.047,3.191 6.845,4.815c0.941,1.871 0.742,4.402 -0.456,5.833c-1.227,1.486 -2.852,2.284 -5.02,2.449c-2.139,0.192 -5.447,-0.413 -7.444,-1.376l-1.369,-0.66l-0.656,1.018c-1.455,2.228 -1.483,2.091 0.342,2.861c3.394,1.459 8.813,1.981 11.979,1.183c3.166,-0.825 5.277,-2.338 6.56,-4.705c0.599,-1.1 0.77,-1.871 0.856,-3.879c0.114,-2.284 0.057,-2.669 -0.656,-4.21c-1.112,-2.366 -2.824,-3.742 -7.501,-6.053c-2.139,-1.046 -4.364,-2.229 -4.906,-2.642c-2.111,-1.513 -2.824,-3.879 -1.854,-6.135c1.027,-2.339 2.881,-3.357 6.132,-3.357c2.539,0 4.079,0.33 5.99,1.21l1.426,0.661l0.884,-1.514c0.742,-1.238 0.827,-1.568 0.513,-1.761c-0.741,-0.467 -3.508,-1.375 -4.934,-1.65c-2.053,-0.358 -6.674,-0.276 -8.186,0.192Z" style="fill-rule:nonzero;"/>
        <path d="M91.554,531.877c-0.143,16.096 -0.086,17.197 1.397,20.223c0.399,0.826 1.284,1.954 2.111,2.669c1.939,1.679 4.107,2.366 8.128,2.559c8.585,0.413 12.978,-2.862 14.061,-10.511c0.172,-1.073 0.343,-6.796 0.4,-12.739l0.085,-10.786l-1.939,0l-1.94,0l-0.028,7.897c0,10.346 -0.342,16.316 -0.998,18.105c-0.713,1.926 -2.738,3.824 -4.706,4.375c-1.854,0.55 -5.049,0.577 -7.017,0.082c-2.681,-0.688 -4.278,-2.174 -5.134,-4.787c-0.342,-1.101 -0.399,-3.357 -0.37,-13.51l0.028,-12.162l-2.025,0l-1.996,0l-0.057,8.585Z" style="fill-rule:nonzero;"/>
        <path d="M186.302,530.529c0,3.989 -0.086,11.556 -0.2,16.784l-0.171,9.547l3.993,0l0.171,-8.062c0.114,-4.402 0.2,-11.968 0.2,-16.784l0,-8.722l-1.997,0l-1.996,0l0,7.237Z" style="fill-rule:nonzero;"/>
        <path d="M254.953,530.088c-0.114,3.77 -0.2,11.309 -0.2,16.784l0,9.988l19.11,0l0,-3.301l-7.559,0l-7.558,0l0.057,-6.136l0.086,-6.109l7.358,-0.082l7.33,-0.055l0,-3.302l-7.444,0c-6.674,0 -7.444,-0.055 -7.273,-0.44c0.086,-0.248 0.171,-2.779 0.171,-5.641l0,-5.2l14.832,0l0,-3.302l-9.355,0l-9.384,0l-0.171,6.796Z" style="fill-rule:nonzero;"/>
        <path d="M374.258,528.3c0,2.779 -0.085,10.318 -0.2,16.784l-0.171,11.776l3.993,0l0.171,-10.125c0.115,-5.558 0.2,-13.097 0.2,-16.784l0,-6.659l-1.996,0l-1.997,0l0,5.008Z" style="fill-rule:nonzero;"/>
        <path d="M396.79,524.943l0,1.651l10.553,0l0,15.133l0,15.133l3.993,0l0,-30.266l10.838,0l0,-3.302l-12.692,0l-12.692,0l0,1.651Z" style="fill-rule:nonzero;"/>
    </g>
</svg>
